<?xml version="1.0" encoding="UTF-8" standalone="no"?>
<!DOCTYPE svg PUBLIC "-//W3C//DTD SVG 1.1//EN" "http://www.w3.org/Graphics/SVG/1.1/DTD/svg11.dtd">
<svg xmlns="http://www.w3.org/2000/svg" xmlns:xlink="http://www.w3.org/1999/xlink" version="1.1" viewBox="-10 0 614 1000">
   <path d="M497 360h69l-32 447v3q-4 35 -31 58.5t-62 23.5h-282q-35 0 -62 -23.5t-31 -58.5v-3l-32 -447h63l28 441q2 8 6 14t11 10t14 4h282q7 0 13.5 -4t11 -10t6.5 -14zM469 266h125v63h-594v-63h125v-31q0 -40 27 -66.5t67 -26.5h156q40 0 67 26.5t27 66.5v31zM188 235v31h218 v-31q0 -14 -8.5 -22.5t-22.5 -8.5h-156q-14 0 -22.5 8.5t-8.5 22.5zM219 766v-374h31v374h-31zM344 766v-374h31v374h-31z" fill="#4d4d74"/>
</svg>