<?xml version="1.0" encoding="UTF-8" standalone="no"?>
<!DOCTYPE svg PUBLIC "-//W3C//DTD SVG 1.1//EN" "http://www.w3.org/Graphics/SVG/1.1/DTD/svg11.dtd">
<svg xmlns="http://www.w3.org/2000/svg" xmlns:xlink="http://www.w3.org/1999/xlink" version="1.1" viewBox="-11 0 684 1000">
  <g transform="matrix(1 0 0 -1 0 800)">
   <path d="M242 -31q-6 0 -12 3q-13 3 -63 25q-21 10 -21.5 39t8.5 58q2 3 3.5 10.5t3.5 11.5q-2 1 -4.5 2.5t-3.5 3.5t-3.5 4.5l-4.5 4.5q-9 0 -22 -6q-26 -10 -55 -9t-42 22q-16 33 -25 62q-3 12 -0.5 22.5t14.5 22t18 16t25 17.5q2 1 5 3t5.5 3.5t5.5 3.5t6 3v25q-4 1 -10 6t-9 6 q-23 15 -34 23t-20.5 23t-5.5 29q4 13 25 63q11 20 39.5 21t57.5 -9q3 -1 11 -3t11 -3q2 3 4 5t6 5t6 6q0 9 -7 21q-9 27 -8.5 56t21.5 41q33 17 63 25q12 4 22.5 1t21.5 -14.5t16 -18t18 -24.5q1 -3 3.5 -7l5 -8t3.5 -7h25q1 3 3.5 6t5 6.5t4.5 6.5q14 23 22.5 34t23 20.5 t29.5 4.5q12 -3 62 -25q21 -10 21.5 -38.5t-8.5 -58.5q-2 -3 -3.5 -10.5t-3.5 -10.5q3 -2 5.5 -4.5t5.5 -6t5 -5.5q9 0 22 6q26 10 55 9t42 -21q16 -34 25 -63q3 -12 0.5 -22.5t-14.5 -22t-18 -16t-25 -17.5q-2 -1 -6 -3.5t-8.5 -5t-6.5 -4.5v-24q3 -2 9 -6.5t9 -6.5 q23 -15 34.5 -23t20.5 -22.5t5 -29.5q-4 -12 -25 -62q-11 -21 -39.5 -22t-57.5 9q-3 2 -11 3.5t-11 2.5q-1 -2 -3 -4l-3.5 -3.5t-4.5 -3.5t-5 -4q0 -10 7 -22q9 -27 8.5 -56t-21.5 -41q-33 -17 -62 -25q-13 -3 -23.5 -0.5t-21.5 14.5t-16 18t-18 24q-1 3 -3.5 7l-5 8t-3.5 7 h-25q-2 -3 -6.5 -9.5t-6.5 -9.5q-14 -29 -28.5 -45.5t-33.5 -16.5zM354 112q15 0 27.5 -12t29.5 -38l19 -28q18 7 24 13q0 5 -3 16.5t-3 14.5q-4 16 -6 24.5t-2.5 19.5t3.5 18t11 13q16 10 26 25q9 12 27 12.5t40 -4.5q5 -1 7 -2q19 -6 32 -6q1 5 4.5 12.5t4.5 12.5l-28 19 q-27 16 -39.5 29t-10.5 30v38q-2 17 10.5 30t39.5 29l28 19q-6 19 -12 25q-5 0 -17 -3t-15 -3q-21 -6 -32 -8t-23 1t-20 13q-10 15 -25 25q-11 10 -12 28t5 40q1 4 1 7q6 19 6 31q-4 2 -12 5t-13 4l-18 -28q-17 -27 -30 -39.5t-30 -10.5h-37q-17 -2 -30 10.5t-30 39.5 l-18 28q-19 -6 -25 -12q0 -5 3 -17t3 -14q6 -22 7.5 -32.5t-1 -23t-12.5 -19.5q-15 -10 -25 -25q-15 -17 -58 -10q-3 1 -10 2l-7 1q-19 7 -32 7q-1 -5 -4 -13t-5 -12q3 -3 7.5 -6t11 -7t9.5 -6q28 -16 40 -29t10 -30v-38q2 -17 -10 -30t-40 -29l-28 -19q6 -19 13 -25 q5 0 16.5 3t14.5 3q10 3 16 4.5t14.5 3t14 1.5t11.5 -1.5t10.5 -5t8.5 -8.5q10 -15 25 -25q17 -14 9 -57q0 -4 -2 -11l-1 -7q-6 -19 -6 -31q4 -2 12 -5t13 -5l18 28q17 28 30 40.5t30 9.5h37h3zM270 300q0 26 18.5 44t44.5 18t44 -18t18 -44t-18 -44t-44 -18t-44.5 18 t-18.5 44z" fill="#4d4d74"/>
  </g>

</svg>